<svg width="290" height="338" viewBox="0 0 265 338" fill="none" xmlns="http://www.w3.org/2000/svg">
<path fill-rule="evenodd" clip-rule="evenodd" d="M108 65C101.373 65 96 70.3726 96 77V110H111C115.971 110 120 114.029 120 119C120 123.971 115.971 128 111 128H76C71.0294 128 67 132.029 67 137C67 141.971 71.0294 146 76 146H144C148.971 146 153 150.029 153 155C153 159.971 148.971 164 144 164H44C39.0294 164 35 168.029 35 173C35 177.971 39.0294 182 44 182H118.5C123.747 182 128 186.253 128 191.5C128 196.747 123.747 201 118.5 201H13C8.02944 201 4 205.029 4 210C4 214.971 8.02944 219 13 219H135.5C140.747 219 145 223.253 145 228.5C145 233.747 140.747 238 135.5 238H96V255C96 261.627 101.373 267 108 267H249C255.627 267 261 261.627 261 255V126.82C261 123.432 259.568 120.203 257.058 117.928L229 92.5L199.856 67.8394C197.689 66.006 194.943 65 192.104 65H108ZM190.5 135.5C187.739 135.5 185.5 133.261 185.5 130.5L185.5 95.7329C185.5 91.3498 190.739 89.088 193.929 92.0937L230.83 126.861C234.125 129.965 231.928 135.5 227.402 135.5L190.5 135.5Z" fill="#042691"/>
<rect x="20" y="128" width="35" height="18" rx="9" fill="#00D5AE"/>
</svg>
